<?xml version="1.0" standalone="no"?>
<!DOCTYPE svg PUBLIC "-//W3C//DTD SVG 20010904//EN"
 "http://www.w3.org/TR/2001/REC-SVG-20010904/DTD/svg10.dtd">
<svg version="1.0" xmlns="http://www.w3.org/2000/svg"
 width="512.000000pt" height="512.000000pt" viewBox="0 0 512.000000 512.000000"
 preserveAspectRatio="xMidYMid meet">
<metadata>
Created by potrace 1.11, written by Peter Selinger 2001-2013
</metadata>
<g transform="translate(0.000000,512.000000) scale(0.100000,-0.100000)"
fill="#000000" stroke="none">
<path d="M3388 4964 c-2 -1 -23 -4 -48 -7 -57 -6 -163 -42 -215 -72 -132 -77
-232 -201 -285 -356 l-13 -35 -74 1 c-74 1 -75 1 -88 31 -7 17 -20 34 -30 38
-27 10 -1741 7 -1769 -3 -13 -6 -30 -23 -38 -38 -13 -27 -17 -28 -83 -29 -79
0 -95 3 -95 20 0 7 -10 22 -23 34 -20 19 -35 22 -105 22 -102 0 -171 -14 -247
-52 -85 -42 -141 -92 -189 -167 -89 -139 -81 -24 -84 -1186 -2 -1137 -6 -1073
61 -1198 36 -69 133 -162 202 -196 28 -13 58 -28 67 -32 25 -12 135 -27 198
-27 107 0 96 24 94 -194 -1 -188 -1 -192 22 -215 25 -25 69 -30 95 -10 8 7 89
98 179 202 89 105 168 196 175 203 13 14 167 23 186 11 6 -3 11 -156 12 -365
2 -342 3 -362 24 -417 56 -149 161 -254 310 -310 l58 -22 1070 -2 c589 -2
1107 -3 1153 -3 l82 0 0 -188 c0 -156 3 -191 16 -210 39 -55 91 -45 149 29 22
28 48 60 58 72 11 12 69 84 129 160 125 154 93 138 264 138 95 1 155 14 239
54 94 45 174 125 219 219 48 100 53 124 55 279 2 134 2 137 -23 162 -14 14
-31 25 -38 25 -10 0 -14 20 -13 82 0 80 1 83 27 95 14 6 31 21 38 32 8 15 10
233 8 774 l-3 752 -24 60 c-84 210 -251 320 -494 324 -117 2 -143 -6 -158 -48
-9 -26 -12 -27 -72 -25 -34 1 -67 2 -73 3 -9 1 -12 57 -12 199 -1 108 -3 207
-6 219 -20 90 -108 163 -198 165 l-43 0 -1 71 c-1 60 -4 73 -23 89 -13 10 -29
18 -37 18 -11 0 -14 19 -14 85 0 73 3 87 18 92 55 20 68 86 36 194 -65 221
-224 377 -443 434 -52 13 -176 27 -183 19z m102 -489 c16 -8 39 -29 51 -46 21
-30 22 -41 24 -241 0 -134 -3 -212 -10 -217 -5 -4 -68 -7 -140 -7 l-130 1 0
210 c1 234 5 252 64 292 40 27 98 30 141 8z"/>
</g>
</svg>
